<svg xmlns="http://www.w3.org/2000/svg" width="1728" height="1728" fill="none" viewBox="0 0 1728 1728"><circle cx="864.5" cy="1025.34" r="158" stroke="#15191c" stroke-opacity=".16"/><circle cx="864.5" cy="1025.34" r="316" stroke="#15191c" stroke-opacity=".12"/><circle cx="864.5" cy="1025.34" r="582" stroke="#15191c" stroke-opacity=".12"/><circle cx="864.5" cy="1025.34" r="702" stroke="#15191c" stroke-opacity=".12"/><path stroke="#15191c" stroke-opacity=".12" d="m870 1031.34-1046.5 413.5"/><path stroke="#15191c" stroke-opacity=".16" d="m870 1031.34 943.5 299.5"/><path stroke="#15191c" stroke-opacity=".12" d="M870 1031.34 1815.5.338"/><path fill="#15191c" d="M837.554 974.982a8 8 0 0 1-2.286-.324 4.46 4.46 0 0 1-1.818-1.098q-.756-.774-1.026-2.052h1.638q.252.81.81 1.26.576.45 1.314.63.738.162 1.476.162t1.368-.198q.648-.216 1.044-.684.414-.468.414-1.206 0-.576-.216-.936a1.5 1.5 0 0 0-.576-.576 3.2 3.2 0 0 0-.864-.378 12 12 0 0 0-1.422-.36 21 21 0 0 1-1.494-.342q-.72-.198-1.35-.504a4.5 4.5 0 0 1-.666-.432 3.3 3.3 0 0 1-.54-.612 4 4 0 0 1-.36-.81q-.126-.45-.126-.99 0-.81.252-1.404t.684-1.008a3.4 3.4 0 0 1 1.008-.666 5.2 5.2 0 0 1 1.224-.36 7 7 0 0 1 1.332-.126q1.098 0 2.052.342.972.324 1.602 1.062.648.738.702 1.998h-1.53q-.09-.756-.504-1.188a2.3 2.3 0 0 0-1.026-.612 4.6 4.6 0 0 0-1.296-.18q-.504 0-1.026.09-.504.09-.936.324a1.7 1.7 0 0 0-.666.612q-.252.378-.252.972 0 .468.162.828.18.36.468.612.306.234.666.396.864.36 1.908.54 1.062.162 1.98.486.54.18.99.45t.756.63q.324.36.486.828.18.45.18 1.026 0 1.044-.36 1.782-.36.72-.99 1.17t-1.458.648a7.3 7.3 0 0 1-1.728.198m6.072 3.276v-12.906h1.458l.072 1.422q.486-.738 1.314-1.134a4.2 4.2 0 0 1 1.818-.396q1.44 0 2.358.648.918.63 1.35 1.728.45 1.098.45 2.484t-.45 2.484a3.74 3.74 0 0 1-1.386 1.728q-.936.63-2.394.63-.72 0-1.296-.144a3.5 3.5 0 0 1-1.008-.45 3.8 3.8 0 0 1-.756-.702v4.608zm4.464-4.662q1.044 0 1.656-.468.612-.486.882-1.278.288-.792.288-1.746 0-.972-.288-1.764a2.55 2.55 0 0 0-.9-1.26q-.63-.468-1.674-.468-.936 0-1.602.486-.648.468-.99 1.278a4.4 4.4 0 0 0-.342 1.746q0 .99.324 1.782t.99 1.242 1.656.45m9.82 1.35q-1.494 0-2.502-.612a3.9 3.9 0 0 1-1.512-1.728q-.486-1.098-.486-2.502 0-1.422.504-2.502a3.9 3.9 0 0 1 1.512-1.728q1.008-.63 2.52-.63 1.494 0 2.484.63a3.8 3.8 0 0 1 1.494 1.728q.504 1.08.504 2.502 0 1.404-.504 2.502a3.9 3.9 0 0 1-1.512 1.728q-.99.612-2.502.612m0-1.35q1.044 0 1.692-.468.666-.468.972-1.26a4.6 4.6 0 0 0 .324-1.764q0-.972-.324-1.764a2.7 2.7 0 0 0-.972-1.26q-.648-.468-1.692-.468-1.026 0-1.692.468a2.84 2.84 0 0 0-.972 1.26 4.9 4.9 0 0 0-.306 1.764q0 .972.306 1.764.324.792.972 1.26.666.468 1.692.468m5.845 1.242v-9.486h1.476l.072 1.44q.324-.522.828-.864a3.7 3.7 0 0 1 1.098-.504q.612-.18 1.188-.18 1.386 0 2.16.576.792.576 1.116 1.566.342.972.342 2.214v5.238h-1.53v-4.824q0-.666-.09-1.278a3.2 3.2 0 0 0-.324-1.098 1.74 1.74 0 0 0-.684-.756q-.45-.288-1.206-.288-.936 0-1.602.522-.648.522-.99 1.404-.324.882-.324 1.98v4.338zm13.371.108q-.648 0-1.314-.126a4.4 4.4 0 0 1-1.224-.432 2.8 2.8 0 0 1-.936-.828q-.378-.522-.486-1.296h1.548q.18.486.576.792.414.288.918.414.522.126.99.126.288 0 .666-.036t.72-.162q.36-.144.576-.414.234-.27.234-.756 0-.36-.162-.594a1.2 1.2 0 0 0-.45-.378 2.2 2.2 0 0 0-.702-.234 42 42 0 0 0-1.818-.342 4.7 4.7 0 0 1-1.692-.612 3.5 3.5 0 0 1-.468-.36 2.6 2.6 0 0 1-.342-.468 3 3 0 0 1-.234-.576 3.2 3.2 0 0 1-.072-.702q0-.702.27-1.206.288-.522.792-.846.504-.342 1.152-.504a6 6 0 0 1 1.422-.162q.936 0 1.674.306.756.288 1.242.864.486.558.576 1.386h-1.422q-.126-.522-.684-.846-.558-.342-1.422-.342a4.4 4.4 0 0 0-.648.054q-.36.036-.684.18a1.27 1.27 0 0 0-.54.396q-.216.252-.216.684 0 .396.198.666.216.27.594.432t.864.27q.63.126 1.386.27.756.126 1.188.27.576.18.954.504.396.324.576.774.198.45.198 1.044 0 .846-.342 1.386-.324.54-.882.846a4.1 4.1 0 0 1-1.242.432 7 7 0 0 1-1.332.126m9.122 0q-1.494 0-2.502-.612a3.9 3.9 0 0 1-1.512-1.728q-.486-1.098-.486-2.502 0-1.422.504-2.502a3.9 3.9 0 0 1 1.512-1.728q1.008-.63 2.52-.63 1.494 0 2.484.63a3.8 3.8 0 0 1 1.494 1.728q.504 1.08.504 2.502 0 1.404-.504 2.502a3.9 3.9 0 0 1-1.512 1.728q-.99.612-2.502.612m0-1.35q1.044 0 1.692-.468.666-.468.972-1.26a4.6 4.6 0 0 0 .324-1.764q0-.972-.324-1.764a2.7 2.7 0 0 0-.972-1.26q-.648-.468-1.692-.468-1.026 0-1.692.468a2.84 2.84 0 0 0-.972 1.26 4.9 4.9 0 0 0-.306 1.764q0 .972.306 1.764.324.792.972 1.26.666.468 1.692.468m5.845 1.242v-9.486h1.476l.072 1.476q.36-.558.828-.9a3.5 3.5 0 0 1 1.062-.504q.594-.18 1.278-.18h.486v1.44h-.558q-1.116 0-1.818.486a2.63 2.63 0 0 0-.99 1.278 4.9 4.9 0 0 0-.306 1.764v4.626z"/><path fill="#15191c" d="M819.844 1029.44c12.054-.25 22.085 9.23 22.408 21.38.324 12.07-9.222 22.12-21.275 22.44h-1.133c-12.054.33-22.085-9.23-22.408-21.3s9.222-22.2 21.276-22.52zm0 35.64c7.362.16 13.51-5.67 13.672-13.12v-.65c0-7.54-6.068-13.69-13.591-13.69s-13.672 6.07-13.672 13.61c-.242 7.37 5.582 13.53 12.944 13.77.162.08.404.08.647.08M869.515 1029.44c12.053.24 21.68 10.2 21.437 22.27-.161 12.15-10.193 21.79-22.246 21.55-11.892-.24-21.438-9.96-21.438-21.87-.081-11.99 9.465-21.79 21.438-21.87.323-.08.566-.08.809-.08m0 35.64c7.361.16 13.509-5.67 13.671-13.12v-.65c0-7.54-6.067-13.69-13.59-13.69-7.524 0-13.672 6.07-13.672 13.61-.243 7.37 5.582 13.53 12.944 13.77.242.08.485.08.647.08M974.033 1071.4v-40.99c0-.57.405-.97.971-.97h6.714c.486 0 .971.4.971.97v40.99c0 .48-.404.97-.971.97h-6.714c-.485 0-.971-.4-.971-.97M948.795 1029.44c-5.986-.17-11.649 2.83-14.966 7.85-2.669-4.86-7.766-7.85-14.966-7.85s-11.406 4.05-12.7 6.15v-6.64c0-.49-.405-.97-.89-.97-.162 0-.405.08-.567.16l-7.038 4.05a.44.44 0 0 0-.242.41v38.72c0 .56.404.97.971.97h6.795c.566 0 .971-.41.971-.97v-22.6c0-6.97 5.096-11.02 11.325-11.02s9.87 4.05 9.87 11.02v22.76c0 .49.404.97.97.97h6.796c.485 0 .97-.4.97-.97v-23.33c.243-6.64 5.259-10.45 11.407-10.45s9.869 4.05 9.869 11.02v22.76c0 .49.405.97.971.97h6.795c.486 0 .971-.4.971-.97v-24.63c-.081-10.2-6.148-17.41-17.312-17.41M769.527 1029.44a22.22 22.22 0 0 0-15.451 5.91v-29c0-.57-.405-.97-.971-.97-.162 0-.323.08-.485.16l-6.957 4.05a.44.44 0 0 0-.243.4v61.41c0 .48.404.97.971.97h6.795c.485 0 .971-.4.971-.97v-4.05c4.206 3.89 9.788 5.99 15.451 5.91 12.054.33 22.085-9.23 22.408-21.3.243-12.15-9.303-22.2-21.356-22.52zm0 35.64c-7.361.16-13.51-5.67-13.671-13.12v-.65c0-7.54 6.067-13.69 13.671-13.69s13.672 6.07 13.672 13.69c.242 7.37-5.582 13.53-12.944 13.77zM822.433 1088.73v2.52h-1.294v-8.27h3.721a2.64 2.64 0 0 1 2.912 2.35v.49c.081 1.54-1.132 2.75-2.669 2.83h-.243zm0-4.53v3.4h2.184c.89.08 1.699-.65 1.78-1.54v-.16c.081-.89-.647-1.7-1.537-1.7h-2.427M831.656 1085.25c1.699 0 2.993 1.38 2.993 3.08s-1.375 3-3.074 3c-1.618 0-2.993-1.38-2.993-3s1.294-3 2.993-3c0-.08 0-.08.081-.08m0 4.94c1.052 0 1.942-.81 1.942-1.86s-.809-1.94-1.861-1.94-1.942.81-1.942 1.86v.08c0 .97.809 1.86 1.861 1.86M841.93 1090.03l1.294-4.62h1.294l-1.699 5.84h-1.617l-1.214-4.14-1.213 4.14h-1.699l-1.699-5.84h1.294l1.295 4.62 1.375-4.54h1.294zM850.748 1090.76c-.647.4-1.456.57-2.184.57-1.618.16-3.155-1.06-3.236-2.76v-.32c-.081-1.62 1.213-3 2.75-3h.081c1.537-.08 2.832 1.14 2.912 2.67 0 .25 0 .49-.08.73h-4.531a1.91 1.91 0 0 0 2.023 1.46c.728 0 1.375-.16 2.022-.57zm-.89-2.92c0-.81-.647-1.45-1.456-1.45h-.162c-.89-.09-1.618.56-1.78 1.45zM853.661 1086.22c.242-.56.809-.89 1.456-.89.243 0 .566.08.809.16l-.162 1.14c-.243-.08-.485-.16-.728-.16-.647 0-1.456.32-1.456 1.62v3.16h-1.133v-5.84h1.214zM856.977 1083.47c0-.41.323-.73.728-.73s.728.32.728.73c0 .4-.324.73-.728.73-.405 0-.728-.24-.728-.73m.08 7.7v-5.84h1.214v5.84zM865.551 1087.68v3.48h-1.133v-3.24c.081-.72-.485-1.37-1.213-1.45h-.243c-.809-.08-1.537.48-1.618 1.29v3.4h-1.213v-5.83h1.213v.73c.405-.57 1.052-.89 1.78-.89 1.213-.08 2.265.81 2.346 2.03.081.24.081.4.081.48M866.927 1088.25c-.08-1.62 1.214-2.92 2.832-3h.081c.809-.08 1.537.32 2.022.89v-.81h1.214v5.43c0 1.62-1.295 2.92-2.913 2.92h-.323c-.809 0-1.618-.17-2.346-.49l.162-1.05c.647.32 1.375.48 2.103.48 1.294 0 2.103-.65 2.103-1.78v-.49c-.485.65-1.294.98-2.022.9-1.618 0-2.913-1.3-2.913-2.84zm3.075-1.87c-.971 0-1.861.81-1.861 1.79v.08a1.785 1.785 0 0 0 1.78 1.94h.081c1.051 0 1.941-.89 1.941-1.94v-.08c0-1.06-.809-1.87-1.861-1.95 0 .16-.08.16-.08.16M879.546 1086.39v2.91a.77.77 0 0 0 .728.89h.162c.324 0 .647-.08.971-.16l.162 1.05c-.405.17-.809.17-1.295.17-.97.08-1.86-.57-1.941-1.54v-3.41h-1.052v-.97h1.052v-1.86h1.132v1.86h1.699v.97h-1.618zM888.122 1087.68v3.49h-1.213v-3.25c.081-.72-.486-1.37-1.214-1.45h-.243c-.808-.08-1.537.48-1.617 1.29v3.41h-1.214v-8.43h1.214v3.4a2.16 2.16 0 0 1 1.779-.89c1.214-.16 2.346.73 2.427 1.95.081.16.081.32.081.48M894.998 1090.76c-.647.4-1.456.57-2.184.57-1.618.16-3.155-1.06-3.236-2.76v-.32c-.081-1.62 1.213-3 2.75-3h.162c1.537 0 2.831 1.22 2.831 2.76 0 .24 0 .48-.08.64h-4.531a1.91 1.91 0 0 0 2.023 1.46c.728 0 1.375-.16 2.022-.57zm-.809-2.92c0-.81-.647-1.45-1.456-1.45h-.162c-.89-.09-1.618.56-1.78 1.45zM903.412 1082.98c2.265 0 4.126 1.87 4.126 4.13 0 2.27-1.861 4.14-4.126 4.14h-3.478v-8.27zm2.751 4.13c.161-1.45-.89-2.75-2.265-2.91h-2.67v5.91h2.022c1.376.16 2.751-.81 2.913-2.19a1.4 1.4 0 0 0 0-.81M908.669 1088.25c-.081-1.62 1.213-2.92 2.831-3h.081c.809-.08 1.537.32 2.022.89v-.81h1.214v5.83h-1.214v-.81c-.485.65-1.294.98-2.022.9a2.905 2.905 0 0 1-2.912-2.92c-.081.08 0 0 0-.08m2.993-1.87c-.971 0-1.861.81-1.861 1.79v.08a1.785 1.785 0 0 0 1.78 1.94h.081c1.052 0 1.941-.89 1.941-1.94v-.08c0-1.06-.808-1.87-1.86-1.95 0 .16 0 .16-.081.16M918.216 1086.39v2.91a.77.77 0 0 0 .728.89h.162c.324 0 .647-.08.971-.16l.162 1.05c-.405.17-.809.17-1.295.17-.97.08-1.86-.57-1.941-1.54v-3.41h-1.052v-.97h1.052v-1.86h1.132v1.86h1.699v.97h-1.618zM920.966 1088.25c-.08-1.62 1.214-2.92 2.832-3h.081c.809-.08 1.537.32 2.022.89v-.81h1.214v5.83h-1.214v-.81c-.485.65-1.294.98-2.022.9a2.906 2.906 0 0 1-2.913-2.92zm3.075-1.87c-.971 0-1.861.81-1.861 1.79v.08a1.785 1.785 0 0 0 1.78 1.94c1.051 0 1.941-.89 1.941-1.94v-.08c0-.89-.809-1.79-1.86-1.79M938.196 1091.16h-6.067v-8.18h5.905v1.14h-4.692v2.26h4.045v1.14h-4.045v2.51h4.773v1.13zM942.484 1085.25c.566 0 1.213.16 1.698.41l-.161 1.05c-.486-.24-1.052-.32-1.618-.32-1.052-.09-1.942.64-2.104 1.7v.16c0 1.05.89 1.94 1.942 1.86h.081c.566 0 1.132-.16 1.618-.32l.161 1.05c-.566.24-1.213.41-1.779.41-1.699.08-3.074-1.14-3.236-2.84-.081-1.7 1.132-3.08 2.831-3.24.243.08.405.08.567.08M948.228 1085.25c1.699 0 2.994 1.38 2.994 3.08s-1.376 3-3.075 3c-1.617 0-2.993-1.38-2.993-3s1.295-3 2.993-3c0-.08 0-.08.081-.08m0 4.94c1.052 0 1.942-.81 1.942-1.86s-.809-1.94-1.861-1.94c-1.051 0-1.941.81-1.941 1.86v.08c0 .97.809 1.86 1.86 1.86M958.179 1087.68v3.49h-1.214v-3.25c.081-.72-.485-1.37-1.213-1.45h-.243c-.809-.08-1.537.48-1.618 1.29v3.41h-1.213v-5.84h1.213v.73c.405-.57 1.052-.89 1.78-.89 1.213-.16 2.346.73 2.427 1.94.081.25.081.41.081.57M962.627 1085.25c1.699 0 2.993 1.38 2.993 3.08s-1.375 3-3.074 3c-1.618 0-2.993-1.38-2.993-3s1.294-3 2.993-3c0-.08 0-.08.081-.08m0 4.94c1.051 0 1.941-.81 1.941-1.86s-.809-1.94-1.86-1.94-1.942.81-1.942 1.86v.08c0 .97.809 1.86 1.861 1.86M972.174 1086.39c.485-.73 1.213-1.14 2.022-1.06 1.214-.08 2.265.81 2.346 2.03v3.89h-1.132v-3.24c0-.98-.486-1.46-1.376-1.46-.809-.08-1.456.56-1.537 1.37v3.41h-1.213v-3.32c0-.98-.485-1.46-1.375-1.46-.809-.08-1.537.56-1.537 1.29v3.32h-1.214v-5.83h1.214v.73c.404-.57 1.051-.89 1.779-.89.809 0 1.618.49 2.023 1.22M982.448 1085.41h1.294l-2.751 6.56c-.485 1.06-.97 1.79-2.346 1.79a2.06 2.06 0 0 1-.97-.25l.161-.97c.243.08.486.16.809.16.809 0 1.052-.4 1.376-1.05l.081-.32-2.508-5.84h1.294l1.78 4.46z"/></svg>