<svg xmlns="http://www.w3.org/2000/svg" width="1359" height="64" fill="none" viewBox="0 0 1359 64"><path fill="#65d100" d="m116 21 5 1 1 3-3 3-3-1a5 5 0 1 0 4 2l3-3 3 1 1 5a11 11 0 0 1-17 9l-5 2 2-5-2-6q1-10 11-11"/><circle cx="116" cy="32" r="3" fill="#65d100"/><circle cx="126" cy="22" r="3" fill="#65d100"/><path fill="#65d100" d="M143 38V25h7l2 1v1l1 2-1 1-1 1 2 1v4l-1 1-2 1h-7m3-2h4l1-1v-2h-1l-1-1h-3zm0-5h2l1-1h1v-2l-1-1h-3zm13 7h-3l-1-2-1-3 1-2 4-3 2 1 1 1 1 1v3h-7l1 1v1h3l1-1h2l-3 3zm-3-6h5v-1l-1-1h-1l-2 1zm12 6h-2l-2-2v-5l2-2 2-1 2 1 2 1v2h-2v-1l-2-1-1 1-1 1v3l1 1h3v-1h3l-3 3zm10 0h-3l-1-2-1-3 1-2 1-2 3-1 2 1 2 2v5l-2 2zm0-2h1l1-1v-3l-2-2-2 1v1l-1 1 1 2v1zm6 2v-9h2v1l1-2h1l2 1 1 1 2-1 1-1 1 1 1 1 1 2v6h-3v-7l-1-1-1 1-1 1v6h-2v-7h-1v-1l-2 1v7zm18 0h-2l-2-2v-5l4-3 2 1 1 1 1 1 1 2-1 1h-6v1l1 1h3v-1h2l-2 3zm-2-6h4v-1l-1-1h-1l-1 1zm15 6h-1l-1-1h-1v-3l1-1 1-1h4v-1h-1l-1-1h-1l-1 1h-2l1-2h2l1-1 3 2 1 3v5h-2v-1l-1 1zm0-2h2v-1l1-1h-4v2zm16 2h-3l-2-1-1-3h3v1l1 1h3l1-1v-1l-1-1h-1l-2-1h-1l-1-1-1-1v-3l1-1h1l3-1 2 1 1 1 1 2h-2l-1-1v-1h-3l-1 1v1l1 1h1l1 1h3l1 1v4l-1 1-2 1zm6 3V29h2v1l1-1 2-1 2 1 2 2v5l-2 1-2 1h-2l-1-1v4zm4-5h2l1-1v-3l-1-1-2-1-2 2v3l1 1zm10 2h-2l-2-2v-5l4-3 2 1 2 1v1l1 2v1h-7v1l1 1h3v-1h3l-3 3zm-2-6h5l-1-1-1-1h-1l-1 1zm11 6h-2l-1-1-1-2 1-1 1-1 1-1h4l-1-1-1-1h-1l-1 1h-2l1-2h1l2-1 3 2 1 3v5h-2v-1l-1 1zm0-2h1l1-1 1-1h-4v2zm6 2V25h2v7h2l2-3h3l-3 4 3 5h-3l-2-4h-2v4zm13 0h-2l-2-2v-5l4-3 2 1 2 1 1 1v3h-7v1l1 1h3v-1h3l-3 3zm-2-6h5l-1-1v-1h-2l-1 1zm8 6v-9h2v1l1-1 1-1h1v2l-2 1-1 1v6z"/></svg>