<svg xmlns="http://www.w3.org/2000/svg" width="228" height="68" fill="none" viewBox="0 0 228 68"><g fill="#15191c" clip-path="url(#a)"><path d="M15.978 34.503H.028c0 .08 0 .154.006.234 0 .147.02.295.027.449 0 .067.007.127.014.194l.04.515q.002.062.014.114l.06.57v.053l.081.616v.007c.182 1.258.46 2.51.823 3.743v.013c.061.194.115.388.183.576 0 .013.006.02.013.033s.007.02.014.034q.082.263.175.515c.013.04.034.087.047.134l.162.449q.042.1.074.2c.048.121.095.248.149.369.04.094.074.188.115.281.04.094.08.194.121.288.054.12.101.234.155.355.034.067.06.14.095.208.067.14.128.28.195.421.02.047.04.087.068.134.08.161.155.322.236.482.013.027.027.047.04.074.095.174.183.348.277.522q.002.01.014.02l.06.108 13.623-8.15.047-.033a10.6 10.6 0 0 1-.998-3.535z"/><path d="m.777 41.761.007.014.513-.161zM19.899 41.768l-.041.04-11.24 11.155c.06.053.114.107.175.16.1.094.209.188.317.282.054.047.108.1.162.14l.384.322c.034.027.068.06.101.087q.214.178.439.348a.2.2 0 0 1 .054.047c.162.127.317.248.48.368q.01.002.02.013a27 27 0 0 0 2.179 1.46c.135.08.276.16.411.241.088.047.169.094.257.14.08.048.162.088.242.135.149.08.29.16.44.234.02.013.04.02.06.034.411.214.823.408 1.241.595l.398-.957 5.655-13.62.02-.053a11 11 0 0 1-1.761-1.165zM18.732 40.656c-.122-.134-.236-.274-.35-.408q-.152-.183-.291-.375c-.108-.148-.216-.288-.31-.436-.102-.147-.196-.3-.29-.448L3.848 47.144q.314.52.647 1.011.01.022.02.034-.002.001.007.013c.007.013.014.02.02.034.02.026.034.053.055.08q.354.522.728 1.024c0 .007.014.014.014.02 0 .007.013.014.013.02.108.141.216.288.33.429q.02.032.048.054c.115.147.236.294.351.435q.039.05.088.1l.324.382.141.16q.143.164.284.315c.054.06.108.114.162.174.027.027.047.054.074.08.067.074.141.148.209.228l.088.087c.121.128.25.255.378.382l11.254-11.168c-.128-.128-.25-.261-.371-.389zM33.65 41.761q-.184.149-.378.288l.026.047 8.205 13.519a25.5 25.5 0 0 0 3.42-2.659l-11.24-11.155-.047-.047zM40.47 56.257s.014-.007.02-.013c0 0-.013 0-.02.006zM40.484 56.25c.034-.02.075-.04.108-.06q-.048.03-.108.06M40.463 56.264l.007-.007zM40.457 56.264l-.02-.034z"/><path d="M40.47 56.257s.014 0 .02-.006c0 0-.013 0-.02.006M40.451 56.27l.007-.006zM40.464 56.264h-.007l.014-.007z"/><path d="m40.315 55.728-.277-.455-7.658-12.615c-.155.094-.31.174-.472.261a10.987 10.987 0 0 1-5.148 1.286c-1.046 0-2.092-.147-3.097-.449-.176-.053-.338-.12-.513-.18-.169-.06-.344-.114-.513-.181L16.99 57.007l-.223.536-.189.455s.027.013.047.02c.014 0 .034.014.048.02h.013c.135.054.27.1.405.154.169.067.337.127.506.194l.256.1a27.3 27.3 0 0 0 5.466 1.3c.074.006.141.02.216.026.074.007.155.014.229.027.142.014.283.034.432.047.034 0 .074 0 .108.007.175.013.35.033.526.047q.09.002.182.013c.155.014.31.02.466.027q.142.002.283.013.181.002.371.014h.661c1.485 0 2.976-.12 4.447-.369 0 0 .047-.006.074-.013.155-.027.31-.053.466-.087.087-.02.175-.033.263-.054a4 4 0 0 1 .27-.053c.148-.034.303-.067.452-.1.027 0 .054-.014.08-.02a27 27 0 0 0 6.424-2.378c.135-.067.263-.147.391-.22.156-.088.317-.175.473-.262l.323-.18s.014-.007.02-.014c.035-.02.068-.04.109-.06l-.277-.462zM19.904 25.096q.185-.15.378-.288l-.027-.047-8.204-13.519q-.569.37-1.127.77A28 28 0 0 0 8.623 13.9l11.24 11.155.048.047zM7.841 14.644c-.128.127-.25.26-.37.388-.122.127-.25.254-.372.388-.83.89-1.592 1.828-2.274 2.799l-.1.14c-.075.114-.156.222-.23.335q-.12.173-.23.355c-.027.04-.054.087-.08.128A26.2 26.2 0 0 0 .027 32.36c-.007.181-.013.355-.013.536 0 .18-.007.355-.007.536h15.917c0-.181.02-.355.026-.536.007-.18.014-.355.027-.536a10.7 10.7 0 0 1 2.402-5.751c.115-.134.243-.268.365-.395.121-.134.236-.268.364-.395zM40.687 10.72l-.068-.04a14 14 0 0 0-.425-.248 8 8 0 0 0-.25-.14c-.08-.048-.168-.095-.25-.141-.14-.08-.29-.154-.431-.235a.3.3 0 0 0-.067-.033 27 27 0 0 0-2.868-1.279q-.042-.018-.074-.027c-.216-.08-.425-.16-.641-.234a27.3 27.3 0 0 0-5.364-1.266q-.112-.018-.223-.026a3 3 0 0 1-.223-.027c-.141-.014-.29-.034-.431-.047-.04 0-.081 0-.122-.013-.169-.014-.344-.034-.513-.04q-.1-.002-.202-.014c-.148-.007-.297-.02-.445-.027-.081 0-.155 0-.236-.007v15.835c.816.088 1.632.255 2.415.523l11.74-11.65c-.438-.302-.877-.59-1.33-.864zM26.234 6.87c-.183 0-.358 0-.54.013q-1.689.07-3.367.342c-.027 0-.047.006-.074.013q-.232.039-.466.087a4 4 0 0 0-.263.054l-.277.06-.452.1-.08.02a27 27 0 0 0-6.424 2.377c-.135.067-.263.148-.391.221-.155.088-.317.175-.473.261-.114.068-.236.128-.35.195q-.009.001-.027.013c-.027.02-.061.034-.095.054l.277.462 7.934 13.076c.156-.093.31-.174.473-.26q.243-.131.486-.242a10.8 10.8 0 0 1 4.102-1.031c.182-.007.357-.02.54-.02V6.856c-.183 0-.358.007-.54.014zM53.52 32.126a10 10 0 0 0-.027-.429c0-.073-.007-.14-.014-.214l-.04-.502a1 1 0 0 0-.014-.127l-.06-.556v-.067l-.082-.603v-.02a26.6 26.6 0 0 0-.823-3.736c0-.007 0-.013-.006-.027-.061-.187-.115-.381-.176-.569a.3.3 0 0 0-.027-.073 11 11 0 0 0-.175-.51c-.014-.046-.034-.093-.047-.14q-.083-.22-.162-.442l-.081-.207-.142-.362a5 5 0 0 1-.115-.288l-.121-.281-.162-.362a3 3 0 0 0-.095-.2l-.202-.43-.06-.126q-.123-.24-.244-.49c-.013-.02-.02-.046-.033-.066-.095-.174-.183-.355-.284-.529 0 0 0-.013-.013-.02a26 26 0 0 0-1.525-2.45L37.043 29.955c.27.784.438 1.587.526 2.397h15.957c0-.08 0-.153-.006-.234zM37.636 33.431c0 .181-.014.355-.027.536-.007.18-.014.355-.027.536a10.64 10.64 0 0 1-2.402 5.751c-.115.134-.243.268-.364.395-.122.134-.237.268-.365.395l11.255 11.169c.128-.127.25-.261.37-.389.122-.127.25-.254.372-.388a28 28 0 0 0 2.28-2.805c.027-.04.054-.074.081-.114q.12-.18.25-.362c.074-.107.142-.214.216-.321l.101-.16a26.37 26.37 0 0 0 4.15-13.185c.006-.18.013-.355.013-.535s.007-.355.007-.536H37.629z"/><path d="M58.277 2.17a7.493 7.493 0 0 0-10.546 0 7.36 7.36 0 0 0-1.404 8.516l-16.24 16.117c-2.787-1.373-6.261-.91-8.582 1.392a7.356 7.356 0 0 0 0 10.466c2.914 2.892 7.63 2.886 10.545 0a7.36 7.36 0 0 0 1.404-8.517l16.24-16.116c2.787 1.372 6.262.91 8.583-1.393a7.356 7.356 0 0 0 0-10.466M61.744 27.707c0-7.922 5.837-13.593 13.852-13.593s13.818 5.671 13.818 13.592S83.578 41.3 75.596 41.3s-13.852-5.672-13.852-13.593m21.868 0c0-4.922-3.138-8.631-8.016-8.631s-8.056 3.703-8.056 8.63c0 4.929 3.137 8.631 8.056 8.631s8.016-3.743 8.016-8.63M92.383 40.83V14.55h12.388c5.755 0 8.892 3.863 8.892 8.47 0 4.606-3.177 8.43-8.892 8.43h-6.748v9.373h-5.64zm15.525-17.81c0-2.203-1.707-3.55-3.933-3.55h-5.958v7.051h5.958c2.226 0 3.933-1.339 3.933-3.508zM116.201 40.83V14.55h18.737v4.92h-13.103v5.518h12.82v4.921h-12.82v5.986h13.103v4.921h-18.737zM156.616 40.83l-12.624-17.134V40.83h-5.64V14.55h5.795l12.267 16.504V14.55h5.64v26.274h-5.438zM184.879 40.83l-1.667-4.453h-11.355l-1.667 4.453h-6.389l10.202-26.274h7.064l10.202 26.274zm-7.348-20.683-4.129 11.31h8.259zM192.738 40.83V14.55h12.388c5.756 0 8.893 3.863 8.893 8.47 0 4.606-3.178 8.43-8.893 8.43h-6.747v9.373h-5.634zm15.519-17.81c0-2.203-1.707-3.55-3.934-3.55h-5.958v7.051h5.958c2.227 0 3.934-1.339 3.934-3.508zM216.549 40.83V14.55h5.64v26.273h-5.64zM222.13 57.188h-6.011v-8.385h5.767V50.1h-4.267v2.184h3.904v1.297h-3.904v2.31h4.511zM206.565 57.188l-3.094-8.385h1.571l1.868 5.6q.15.446.286.904.137.453.179.601l.017-.065.042-.131q.393-1.28.399-1.31l1.856-5.6h1.566l-3.083 8.386zM198.554 57.188h-1.505v-8.385h1.505zM189.399 57.188h-1.5V50.1h-2.606v-1.297h6.719V50.1h-2.613zM181.981 57.188h-1.505l-.72-2.125h-3.464l-.726 2.125h-1.517l3.1-8.385h1.768zm-5.29-3.303h2.666l-.904-2.666a46 46 0 0 1-.429-1.286 5 5 0 0 1-.077.238q-.06.184-.107.34-.12.339-.238.714zM169.084 57.188h-1.506v-8.385h1.506zM159.93 57.188h-1.499V50.1h-2.607v-1.297h6.719V50.1h-2.613zM150.787 57.188h-1.506v-8.385h1.506zM136.621 57.188v-8.385h1.797l3.791 6.706a32 32 0 0 1-.042-1.577v-5.13h1.375v8.386h-1.863l-3.719-6.642q.03.876.03 1.44v5.202zM130.883 57.188h-1.506v-8.385h1.506z"/></g><defs><clipPath id="a"><path fill="#fff" d="M0 0h227.813v60H0z"/></clipPath></defs></svg>